<svg xmlns="http://www.w3.org/2000/svg" xmlns:xlink="http://www.w3.org/1999/xlink" width="29.444" height="29.444" viewBox="0 0 29.444 29.444">
  <defs>
    <filter id="Path_14" x="0" y="0" width="29.444" height="29.444" filterUnits="userSpaceOnUse">
      <feOffset input="SourceAlpha"/>
      <feGaussianBlur stdDeviation="2.5" result="blur"/>
      <feFlood flood-color="#f2dc66"/>
      <feComposite operator="in" in2="blur"/>
      <feComposite in="SourceGraphic"/>
    </filter>
  </defs>
  <g id="Group_7" data-name="Group 7" transform="translate(1647.944 234.944) rotate(-180)">
    <g id="Group_6" data-name="Group 6" transform="translate(1629.283 216.283)">
      <line id="Line_4" data-name="Line 4" y2="7.845" transform="translate(3.922)" fill="none" stroke="#f2dc66" stroke-linecap="round" stroke-width="1"/>
      <line id="Line_5" data-name="Line 5" y1="3.923" x2="3.923" transform="translate(0)" fill="none" stroke="#f2dc66" stroke-linecap="round" stroke-width="1"/>
      <line id="Line_6" data-name="Line 6" x1="3.923" y1="3.923" transform="translate(3.922)" fill="none" stroke="#f2dc66" stroke-linecap="round" stroke-width="1"/>
    </g>
    <g transform="matrix(-1, 0, 0, -1, 1647.94, 234.94)" filter="url(#Path_14)">
      <g id="Path_14-2" data-name="Path 14" transform="translate(21.94 21.94) rotate(-180)" fill="none">
        <path d="M7.222,0A7.222,7.222,0,1,1,0,7.222,7.222,7.222,0,0,1,7.222,0Z" stroke="none"/>
        <path d="M 7.221802234649658 1.000001907348633 C 3.791091918945312 1.000001907348633 1.000001907348633 3.791091918945312 1.000001907348633 7.221802234649658 C 1.000001907348633 10.652512550354 3.791091918945312 13.44360256195068 7.221802234649658 13.44360256195068 C 10.652512550354 13.44360256195068 13.44360256195068 10.652512550354 13.44360256195068 7.221802234649658 C 13.44360256195068 3.791091918945312 10.652512550354 1.000001907348633 7.221802234649658 1.000001907348633 M 7.221802234649658 1.9073486328125e-06 C 11.21029281616211 1.9073486328125e-06 14.44360256195068 3.233312606811523 14.44360256195068 7.221802234649658 C 14.44360256195068 11.21029281616211 11.21029281616211 14.44360256195068 7.221802234649658 14.44360256195068 C 3.233312606811523 14.44360256195068 1.9073486328125e-06 11.21029281616211 1.9073486328125e-06 7.221802234649658 C 1.9073486328125e-06 3.233312606811523 3.233312606811523 1.9073486328125e-06 7.221802234649658 1.9073486328125e-06 Z" stroke="none" fill="#f2dc66"/>
      </g>
    </g>
  </g>
</svg>
