<?xml version="1.0" encoding="UTF-8" standalone="no"?>
<!DOCTYPE svg PUBLIC "-//W3C//DTD SVG 1.1//EN" "http://www.w3.org/Graphics/SVG/1.1/DTD/svg11.dtd">
<svg width="100%" height="100%" viewBox="0 0 24 24" version="1.1" xmlns="http://www.w3.org/2000/svg" xmlns:xlink="http://www.w3.org/1999/xlink" xml:space="preserve" xmlns:serif="http://www.serif.com/" style="fill-rule:evenodd;clip-rule:evenodd;stroke-linejoin:round;stroke-miterlimit:2;">
    <rect x="0" y="0" width="24" height="24" style="fill:none;fill-rule:nonzero;"/>
    <g transform="matrix(1,0,0,1,-0.223976,-0.150862)">
        <g transform="matrix(1.66314,-1.66314,0.849522,0.849522,-10.4559,17.8397)">
            <path d="M14.959,10C14.959,8.981 14.536,8.153 14.015,8.153L3.042,8.153C2.521,8.153 2.098,8.981 2.098,10C2.098,11.02 2.521,11.848 3.042,11.848L14.015,11.848C14.536,11.848 14.959,11.02 14.959,10Z" style="fill:white;"/>
        </g>
        <g transform="matrix(1.66314,1.66314,-0.849522,0.849522,6.53513,-10.529)">
            <path d="M14.959,10C14.959,8.981 14.536,8.153 14.015,8.153L3.042,8.153C2.521,8.153 2.098,8.981 2.098,10C2.098,11.02 2.521,11.848 3.042,11.848L14.015,11.848C14.536,11.848 14.959,11.02 14.959,10Z" style="fill:white;"/>
        </g>
    </g>
</svg>
