<svg xmlns="http://www.w3.org/2000/svg" xmlns:xlink="http://www.w3.org/1999/xlink" width="375.651" height="284.559" viewBox="0 0 375.651 284.559">
  <defs>
    <filter id="_18" x="344.651" y="251.559" width="31" height="33" filterUnits="userSpaceOnUse">
      <feOffset input="SourceAlpha"/>
      <feGaussianBlur stdDeviation="2.5" result="blur"/>
      <feFlood flood-color="#f2dc66" flood-opacity="0.588"/>
      <feComposite operator="in" in2="blur"/>
      <feComposite in="SourceGraphic"/>
    </filter>
    <linearGradient id="linear-gradient" x1="0.246" y1="-0.764" x2="0.518" y2="0.646" gradientUnits="objectBoundingBox">
      <stop offset="0" stop-color="#fff"/>
      <stop offset="0.898" stop-color="#fff" stop-opacity="0.051"/>
      <stop offset="1" stop-color="#fff" stop-opacity="0"/>
    </linearGradient>
    <linearGradient id="linear-gradient-2" x1="0.56" y1="-2.448" x2="0.662" y2="0.948" gradientUnits="objectBoundingBox">
      <stop offset="0" stop-color="#f2dc66"/>
      <stop offset="0.979" stop-color="#f2dc66" stop-opacity="0.008"/>
      <stop offset="1" stop-color="#f2dc66" stop-opacity="0"/>
    </linearGradient>
  </defs>
  <g id="daten" transform="translate(-58.849 -338.941)">
    <g id="Group_16" data-name="Group 16">
      <text id="_20" data-name="20" transform="translate(70 612)" fill="#fff" font-size="14" font-family="Montserrat-Medium, Montserrat" font-weight="500"><tspan x="-8.666" y="0">20</tspan></text>
      <text id="_22" data-name="22" transform="translate(107 612)" fill="#fff" font-size="14" font-family="Montserrat-Medium, Montserrat" font-weight="500"><tspan x="-8.036" y="0">22</tspan></text>
      <text id="_0" data-name="0" transform="translate(139 612)" fill="#fff" font-size="14" font-family="Montserrat-Medium, Montserrat" font-weight="500"><tspan x="-4.669" y="0">0</tspan></text>
      <text id="_2" data-name="2" transform="translate(168 612)" fill="#fff" font-size="14" font-family="Montserrat-Medium, Montserrat" font-weight="500"><tspan x="-4.018" y="0">2</tspan></text>
      <text id="_4" data-name="4" transform="translate(196 612)" fill="#fff" font-size="14" font-family="Montserrat-Medium, Montserrat" font-weight="500"><tspan x="-4.683" y="0">4</tspan></text>
      <text id="_6" data-name="6" transform="translate(225 612)" fill="#fff" font-size="14" font-family="Montserrat-Medium, Montserrat" font-weight="500"><tspan x="-4.319" y="0">6</tspan></text>
      <text id="_8" data-name="8" transform="translate(253 612)" fill="#fff" font-size="14" font-family="Montserrat-Medium, Montserrat" font-weight="500"><tspan x="-4.508" y="0">8</tspan></text>
      <text id="_10" data-name="10" transform="translate(285 612)" fill="#fff" font-size="14" font-family="Montserrat-Medium, Montserrat" font-weight="500"><tspan x="-7.259" y="0">10</tspan></text>
      <text id="_12" data-name="12" transform="translate(318 612)" fill="#fff" font-size="14" font-family="Montserrat-Medium, Montserrat" font-weight="500"><tspan x="-6.608" y="0">12</tspan></text>
      <text id="_14" data-name="14" transform="translate(352 612)" fill="#fff" font-size="14" font-family="Montserrat-Medium, Montserrat" font-weight="500"><tspan x="-7.273" y="0">14</tspan></text>
      <text id="_16" data-name="16" transform="translate(385 612)" fill="#fff" font-size="14" font-family="Montserrat-Medium, Montserrat" font-weight="500"><tspan x="-6.909" y="0">16</tspan></text>
      <g transform="matrix(1, 0, 0, 1, 58.85, 338.94)" filter="url(#_18)">
        <text id="_18-2" data-name="18" transform="translate(360.15 273.06)" fill="#f2dc66" font-size="14" font-family="Montserrat-Medium, Montserrat" font-weight="500"><tspan x="-7.098" y="0">18</tspan></text>
      </g>
    </g>
    <g id="wellen">
      <g id="Group_12" data-name="Group 12">
        <line id="Line_10" data-name="Line 10" x2="364" transform="translate(61.5 347.5)" fill="none" stroke="#2c2c28" stroke-linecap="round" stroke-width="2"/>
        <line id="Line_15" data-name="Line 15" x2="364" transform="translate(61.5 490)" fill="none" stroke="#2c2c28" stroke-linecap="round" stroke-width="2"/>
        <line id="Line_11" data-name="Line 11" x2="364" transform="translate(61.5 395)" fill="none" stroke="#2c2c28" stroke-linecap="round" stroke-width="2"/>
        <line id="Line_14" data-name="Line 14" x2="364" transform="translate(61.5 537.5)" fill="none" stroke="#2c2c28" stroke-linecap="round" stroke-width="2"/>
        <line id="Line_12" data-name="Line 12" x2="364" transform="translate(61.5 442.5)" fill="none" stroke="#2c2c28" stroke-linecap="round" stroke-width="2"/>
        <line id="Line_13" data-name="Line 13" x2="364" transform="translate(61.5 585)" fill="none" stroke="#2c2c28" stroke-linecap="round" stroke-width="2"/>
      </g>
      <path id="Path_21" data-name="Path 21" d="M62.352,1684.141s45.581-92.031,67.129-101.625,61.159-29.644,73.931-47.8,30.776-42.719,81.734-48.973,88.6,82.958,137.793,89.605" transform="translate(0 -1144)" stroke="#fff" stroke-linecap="round" stroke-width="5" fill="url(#linear-gradient)"/>
      <path id="Path_20" data-name="Path 20" d="M61.5,1698.409s24.175-1.507,52.222-24.493,22.327-29.365,46.647-36.673,32.615-24.786,39.784-41.836,14.732-44.364,33.943-50.338,17-20.7,29.147-35.114,27.7-22.053,41.348-3.153,14.821,63.039,56.851,100.14,17.742,60.994,64.781,66.974" transform="translate(0 -1144)" stroke="#f2dc66" stroke-linecap="round" stroke-width="5" fill="url(#linear-gradient-2)"/>
    </g>
  </g>
</svg>
