<?xml version="1.0" encoding="UTF-8" standalone="no"?>
<!DOCTYPE svg PUBLIC "-//W3C//DTD SVG 1.1//EN" "http://www.w3.org/Graphics/SVG/1.1/DTD/svg11.dtd">
<svg width="100%" height="100%" viewBox="0 0 948 869" version="1.1" xmlns="http://www.w3.org/2000/svg" xmlns:xlink="http://www.w3.org/1999/xlink" xml:space="preserve" xmlns:serif="http://www.serif.com/" style="fill-rule:evenodd;clip-rule:evenodd;">
    <rect id="Artboard1" x="0" y="0" width="947.04" height="869" style="fill:none;"/>
    <g id="Artboard11" serif:id="Artboard1">
        <g id="Group_75" transform="matrix(1,0,0,1,-244,-107)">
            <g id="Haus_Schnitt">
                <g id="Heatmap">
                    <path id="Path_8" d="M886,121.068C886,121.068 907.253,157.368 931.852,164.02C956.451,170.672 976.23,157.62 1020.1,212.52C1063.97,267.42 1164.99,318.42 1164.99,318.42L1164.99,760.651C1164.99,760.651 1110.59,817.918 1027.54,839.885C944.494,861.852 994.091,911.658 931.852,918.574C869.613,925.49 680.277,926.54 677.011,892.685C673.745,858.83 677.011,582.956 677.011,582.956L479.73,582.956L559.558,502.965L479.73,418.2L479.73,128.352L886,121.068Z" style="fill:url(#_Radial1);fill-rule:nonzero;stroke:rgb(96,92,74);stroke-width:5px;"/>
                    <g>
                        <path id="Path_7-2" d="M476.084,206.885C476.084,206.885 609.365,205.013 650.372,183.785C691.379,162.557 741.819,219.53 774.206,240.124C806.593,260.718 866.093,329.055 941.027,290.693C1015.96,252.331 1033.15,266.111 1081.53,347.168C1129.9,428.225 1173.54,468.344 1173.54,468.344L1173.54,710.157C1173.54,710.157 1165.97,743.27 1069.12,710.157C972.28,677.044 1051.41,790.869 964.305,788.733C877.199,786.597 916.151,736.876 851.138,736.062C786.125,735.248 723.805,780.921 678.538,753.592C667.356,750.592 678.538,589.083 678.538,589.083L476.08,579.359L476.08,543.281L503.124,536.045L503.124,441.676L476.084,441.676L476.084,206.885Z" style="fill:url(#_Radial2);fill-rule:nonzero;stroke:rgb(98,89,52);stroke-width:5px;"/>
                    </g>
                    <g transform="matrix(1,0,0,1,5.79,-3.46)">
                        <path id="Path_5-2" d="M506.052,420.1C506.052,420.1 483.424,298.9 533.645,291.584C583.866,284.268 574.207,319.316 611.729,312.151C649.251,304.986 615.02,296.033 674.384,291.584C733.748,287.135 740.064,326.084 775.049,338.263C810.034,350.442 833.81,384.763 842.924,409.717C852.038,434.671 1019,420.1 1019,420.1L1019,442.929C1019,442.929 1057.45,437.689 1089.61,493.139C1121.77,548.589 1013.05,574.454 1013.05,574.454L1019,597.19C1019,597.19 1005.57,596.856 998.084,627.27C990.595,657.684 977.184,703.91 936.184,698.538C895.184,693.166 928.566,588.047 928.566,588.047L793.006,588.047C793.006,588.047 788.799,669.903 737.458,646.047C686.117,622.191 680.651,672.836 680.651,672.836L674.384,588.044L481.384,588.044C481.384,588.044 456.419,505.898 481.384,431.668C487.03,414.891 506.052,420.1 506.052,420.1Z" style="fill:url(#_Radial3);fill-rule:nonzero;stroke:rgb(242,220,102);stroke-width:5px;"/>
                    </g>
                </g>
                <g id="RstlSchnitt" transform="matrix(1,0,0,1,244,113)">
                    <path d="M13,851C5.868,851 0,845.132 0,838L0,13C-0,5.868 5.868,0 13,0L234,0C241.132,-0 247,5.868 247,13C247,20.132 241.132,26 234,26L26,26L26,459L232,459C236.443,458.998 240.59,461.275 242.972,465.026C246.724,467.408 249.002,471.556 249,476L249,654C249,661.132 243.132,667 236,667C228.868,667 223,661.132 223,654L223,485L26,485L26,825L223,825L223,732C223,724.868 228.868,719 236,719C243.132,719 249,724.868 249,732L249,825L436,825C443.132,825 449,830.868 449,838C449,845.132 443.132,851 436,851L13,851Z" style="fill:url(#_Linear4);fill-rule:nonzero;"/>
                </g>
                <g transform="matrix(1,0,0,1,467,113)">
                    <g id="HauptSchnitt-2">
                        <path d="M700,850.5L210,850.5C209.841,850.5 209.679,850.497 209.519,850.491L209.5,850.491L209.481,850.491C209.32,850.497 209.158,850.5 209,850.5C205.661,850.5 202.522,849.2 200.161,846.839C197.8,844.478 196.5,841.339 196.5,838L196.5,484.5L13,484.5C9.661,484.5 6.522,483.2 4.161,480.839C1.8,478.478 0.5,475.339 0.5,472L0.5,431C0.5,427.661 1.8,424.522 4.161,422.161C6.522,419.8 9.661,418.5 13,418.5C16.339,418.5 19.478,419.8 21.839,422.161C24.2,424.522 25.5,427.661 25.5,431L25.5,459.5L209,459.5C212.339,459.5 215.478,460.8 217.839,463.161C220.2,465.522 221.5,468.661 221.5,472L221.5,825.5L449.5,825.5L449.5,484.5L285,484.5C281.661,484.5 278.522,483.2 276.161,480.839C273.8,478.478 272.5,475.339 272.5,472C272.5,468.661 273.8,465.522 276.161,463.161C278.522,460.8 281.661,459.5 285,459.5L462,459.5C465.339,459.5 468.478,460.8 470.839,463.161C473.2,465.522 474.5,468.661 474.5,472L474.5,825.5L687.5,825.5L687.5,484.5L538,484.5C534.661,484.5 531.522,483.2 529.161,480.839C526.8,478.478 525.5,475.339 525.5,472C525.5,468.661 526.8,465.522 529.161,463.161C531.522,460.8 534.661,459.5 538,459.5L541.5,459.5L541.5,427C541.5,423.661 542.8,420.522 545.161,418.161C547.522,415.8 550.661,414.5 554,414.5C557.339,414.5 560.478,415.8 562.839,418.161C565.2,420.522 566.5,423.661 566.5,427L566.5,459.5L687.5,459.5L687.5,25.5L479.5,25.5L479.5,293.5L554,293.5C557.339,293.5 560.478,294.801 562.839,297.162C565.2,299.522 566.5,302.661 566.5,306L566.5,349C566.5,352.339 565.2,355.478 562.839,357.839C560.478,360.2 557.339,361.5 554,361.5C550.661,361.5 547.522,360.2 545.161,357.839C542.8,355.478 541.5,352.339 541.5,349L541.5,318.5L313,318.5C309.661,318.5 306.522,317.199 304.161,314.839C301.8,312.478 300.5,309.339 300.5,306C300.5,302.661 301.8,299.522 304.161,297.162C306.522,294.801 309.661,293.5 313,293.5L454.5,293.5L454.5,25.5L194.5,25.5L194.5,293.5L238,293.5C241.339,293.5 244.478,294.801 246.839,297.162C249.2,299.522 250.5,302.661 250.5,306C250.5,309.339 249.2,312.478 246.839,314.839C244.478,317.199 241.339,318.5 238,318.5L158,318.5C154.661,318.5 151.522,317.199 149.161,314.839C146.8,312.478 145.5,309.339 145.5,306C145.5,302.661 146.8,299.522 149.161,297.162C151.522,294.801 154.661,293.5 158,293.5L169.5,293.5L169.5,25.5L25.5,25.5L25.5,293.5L80,293.5C83.339,293.5 86.478,294.801 88.839,297.162C91.199,299.522 92.5,302.661 92.5,306C92.5,309.339 91.199,312.478 88.839,314.839C86.478,317.199 83.339,318.5 80,318.5L25.5,318.5L25.5,344C25.5,347.339 24.2,350.478 21.839,352.839C19.478,355.2 16.339,356.5 13,356.5C9.661,356.5 6.522,355.2 4.161,352.839C1.8,350.478 0.5,347.339 0.5,344L0.5,13C0.5,9.661 1.8,6.522 4.161,4.161C6.522,1.8 9.661,0.5 13,0.5L700,0.5C703.339,0.5 706.478,1.8 708.839,4.161C711.2,6.522 712.5,9.661 712.5,13L712.5,838C712.5,841.339 711.2,844.478 708.839,846.839C706.478,849.2 703.339,850.5 700,850.5Z" style="fill:rgb(44,44,40);fill-rule:nonzero;"/>
                        <path d="M700,850C703.205,850 706.219,848.752 708.485,846.486C710.752,844.219 712,841.205 712,838L712,13C712,9.795 710.752,6.781 708.485,4.515C706.219,2.248 703.205,1 700,1L13,1C9.794,1 6.781,2.248 4.515,4.515C2.248,6.781 1,9.795 1,13L1,344C1,347.205 2.248,350.219 4.515,352.486C6.781,354.752 9.794,356 13,356C16.205,356 19.219,354.752 21.485,352.486C23.752,350.219 25,347.205 25,344L25,318L80,318C83.205,318 86.219,316.751 88.485,314.485C90.751,312.219 92,309.205 92,306C92,302.795 90.751,299.782 88.485,297.515C86.219,295.249 83.205,294 80,294L25,294L25,25L170,25L170,294L158,294C154.795,294 151.781,295.249 149.515,297.515C147.248,299.782 146,302.795 146,306C146,309.205 147.248,312.219 149.515,314.485C151.781,316.751 154.795,318 158,318L238,318C241.205,318 244.219,316.751 246.485,314.485C248.752,312.219 250,309.205 250,306C250,302.795 248.752,299.782 246.485,297.515C244.219,295.249 241.205,294 238,294L194,294L194,25L455,25L455,294L313,294C309.795,294 306.781,295.249 304.514,297.515C302.248,299.782 301,302.795 301,306C301,309.205 302.248,312.219 304.514,314.485C306.781,316.751 309.795,318 313,318L542,318L542,349C542,352.205 543.248,355.219 545.515,357.485C547.781,359.752 550.795,361 554,361C557.206,361 560.219,359.752 562.485,357.485C564.752,355.219 566,352.205 566,349L566,306C566,302.795 564.752,299.782 562.485,297.515C560.219,295.249 557.206,294 554,294L479,294L479,25L688,25L688,460L566,460L566,427C566,423.795 564.752,420.781 562.485,418.515C560.219,416.248 557.206,415 554,415C550.795,415 547.781,416.248 545.515,418.515C543.248,420.781 542,423.794 542,427L542,460L538,460C534.795,460 531.781,461.248 529.514,463.515C527.248,465.781 526,468.794 526,472C526,475.205 527.248,478.219 529.514,480.485C531.781,482.752 534.795,484 538,484L688,484L688,826L474,826L474,472C474,468.794 472.752,465.781 470.485,463.515C468.219,461.248 465.205,460 462,460L285,460C281.795,460 278.781,461.248 276.515,463.515C274.248,465.781 273,468.794 273,472C273,475.205 274.248,478.219 276.515,480.485C278.781,482.752 281.795,484 285,484L450,484L450,826L221,826L221,472C221,468.794 219.752,465.781 217.486,463.515C215.219,461.248 212.205,460 209,460L25,460L25,431C25,427.795 23.752,424.781 21.485,422.514C19.219,420.248 16.205,419 13,419C9.794,419 6.781,420.248 4.515,422.514C2.248,424.781 1,427.795 1,431L1,472C1,475.205 2.248,478.219 4.515,480.485C6.781,482.752 9.794,484 13,484L197,484L197,838C197,841.205 198.248,844.219 200.515,846.486C202.781,848.752 205.795,850 209,850C209.152,850 209.308,849.998 209.462,849.992L209.5,849.99L209.537,849.992C209.692,849.998 209.847,850 210,850L700,850M700,851L210,851C209.832,851 209.666,850.997 209.5,850.991C209.334,850.997 209.167,851 209,851C201.82,851 196,845.18 196,838L196,485L13,485C5.82,485 0,479.18 0,472L0,431C0,423.82 5.82,418 13,418C20.18,418 26,423.82 26,431L26,459L209,459C216.18,459 222,464.82 222,472L222,825L449,825L449,485L285,485C277.82,485 272,479.18 272,472C272,464.82 277.82,459 285,459L462,459C469.18,459 475,464.82 475,472L475,825L687,825L687,485L538,485C530.82,485 525,479.18 525,472C525,464.82 530.82,459 538,459L541,459L541,427C541,419.82 546.82,414 554,414C561.18,414 567,419.82 567,427L567,459L687,459L687,26L480,26L480,293L554,293C561.18,293 567,298.821 567,306L567,349C567,356.18 561.18,362 554,362C546.82,362 541,356.18 541,349L541,319L313,319C305.82,319 300,313.179 300,306C300,298.821 305.82,293 313,293L454,293L454,26L195,26L195,293L238,293C245.18,293 251,298.821 251,306C251,313.179 245.18,319 238,319L158,319C150.82,319 145,313.179 145,306C145,298.821 150.82,293 158,293L169,293L169,26L26,26L26,293L80,293C87.179,293 93,298.821 93,306C93,313.179 87.179,319 80,319L26,319L26,344C26,351.18 20.18,357 13,357C5.82,357 0,351.18 0,344L0,13C0,5.82 5.82,-0 13,-0L700,-0C707.179,-0 713,5.82 713,13L713,838C713,845.18 707.179,851 700,851Z" style="fill:rgb(62,60,54);fill-rule:nonzero;"/>
                    </g>
                </g>
            </g>
            <g id="Geräte">
                <g transform="matrix(1,0,0,1,690,443)">
                    <circle id="Ellipse_7-2" cx="13" cy="13" r="13" style="fill:rgb(242,220,102);"/>
                </g>
                <g transform="matrix(1,0,0,1,873,629)">
                    <circle id="Ellipse_8-2" cx="13" cy="13" r="13" style="fill:rgb(206,205,181);"/>
                </g>
                <g id="KURVE-MB" serif:id="KURVE MB" transform="matrix(1.61063,0,0,1.61063,865.062,662.158)">
                    <path d="M13,0C20.175,0 26,5.825 26,13C26,20.175 20.175,26 13,26" style="fill:none;stroke:rgb(242,220,102);stroke-width:3.1px;stroke-linecap:round;stroke-linejoin:round;stroke-miterlimit:2;"/>
                </g>
                <g id="KURVE-LT" serif:id="KURVE LT" transform="matrix(1.61063,0,0,1.61063,1109.05,479.32)">
                    <path d="M13,0C20.175,0 26,5.825 26,13" style="fill:none;stroke:rgb(242,220,102);stroke-width:3.1px;stroke-linecap:round;stroke-linejoin:round;stroke-miterlimit:2;"/>
                </g>
                <g id="KURVE-SS" serif:id="KURVE SS" transform="matrix(1.61063,0,0,1.61063,1004.93,141.438)">
                    <path d="M13,0C13.967,0 14.909,0.106 15.815,0.306" style="fill:none;stroke:rgb(242,220,102);stroke-width:3.1px;stroke-linecap:round;stroke-linejoin:round;stroke-miterlimit:2;"/>
                </g>
                <g id="KURVE-IPA" serif:id="KURVE IPA" transform="matrix(1.61063,0,0,1.61063,677.541,242.582)">
                    <path d="M13,0C13.967,0 14.909,0.106 15.815,0.306" style="fill:none;stroke:rgb(242,220,102);stroke-width:3.1px;stroke-linecap:round;stroke-linejoin:round;stroke-miterlimit:2;"/>
                </g>
                <g id="KURVE-FRI" serif:id="KURVE FRI" transform="matrix(1.61063,0,0,1.61063,860.008,341.255)">
                    <path d="M13,0C13.967,0 14.909,0.106 15.815,0.306" style="fill:none;stroke:rgb(242,220,102);stroke-width:3.1px;stroke-linecap:round;stroke-linejoin:round;stroke-miterlimit:2;"/>
                </g>
                <g id="KURVE-EC" serif:id="KURVE EC" transform="matrix(1.61063,0,0,1.61063,865.171,621.357)">
                    <path d="M13,0C13.967,0 14.909,0.106 15.815,0.306" style="fill:none;stroke:rgb(242,220,102);stroke-width:3.1px;stroke-linecap:round;stroke-linejoin:round;stroke-miterlimit:2;"/>
                </g>
                <g id="KURVE-IP" serif:id="KURVE IP" transform="matrix(1.61063,0,0,1.61063,690.11,843.085)">
                    <path d="M13,0C17.151,0 20.851,1.95 23.232,4.984" style="fill:none;stroke:rgb(242,220,102);stroke-width:3.1px;stroke-linecap:round;stroke-linejoin:round;stroke-miterlimit:2;"/>
                </g>
                <g transform="matrix(1,0,0,1,873,670)">
                    <circle id="Ellipse_9-2" cx="13" cy="13" r="13" style="fill:rgb(206,205,181);"/>
                </g>
                <g transform="matrix(1,0,0,1,1117,487)">
                    <circle id="Ellipse_10-2" cx="13" cy="13" r="13" style="fill:rgb(206,205,181);"/>
                </g>
                <g id="LAPTOP" transform="matrix(0.620122,0,0,0.620122,1122.59,492.563)">
                    <path d="M20,18C21.1,18 21.99,17.1 21.99,16L22,5C22,3.9 21.1,3 20,3L4,3C2.9,3 2,3.9 2,5L2,16C2,17.1 2.9,18 4,18L0,18C0,19.1 0.9,20 2,20L22,20C23.1,20 24,19.1 24,18L20,18ZM5,5L19,5C19.55,5 20,5.45 20,6L20,15C20,15.55 19.55,16 19,16L5,16C4.45,16 4,15.55 4,15L4,6C4,5.45 4.45,5 5,5ZM12,19C11.45,19 11,18.55 11,18C11,17.45 11.45,17 12,17C12.55,17 13,17.45 13,18C13,18.55 12.55,19 12,19Z" style="fill:rgb(44,44,40);fill-rule:nonzero;"/>
                </g>
                <g transform="matrix(1,0,0,1,698,851)">
                    <circle id="Ellipse_11-2" cx="13" cy="13" r="13" style="fill:rgb(206,205,181);"/>
                </g>
                <g transform="matrix(1,0,0,1,1013,149)">
                    <circle id="Ellipse_12-2" cx="13" cy="13" r="13" style="fill:rgb(206,205,181);"/>
                </g>
                <g transform="matrix(1,0,0,1,868,349)">
                    <circle id="Ellipse_13-2" cx="13" cy="13" r="13" style="fill:rgb(206,205,181);"/>
                </g>
                <g transform="matrix(1,0,0,1,685,250)">
                    <circle id="Ellipse_14-2" cx="13" cy="13" r="13" style="fill:rgb(206,205,181);"/>
                </g>
            </g>
            <g id="MACBOOK" transform="matrix(0.620122,0,0,0.620122,878.423,675.72)">
                <path d="M20,18C21.1,18 21.99,17.1 21.99,16L22,5C22,3.9 21.1,3 20,3L4,3C2.9,3 2,3.9 2,5L2,16C2,17.1 2.9,18 4,18L0,18C0,19.1 0.9,20 2,20L22,20C23.1,20 24,19.1 24,18L20,18ZM5,5L19,5C19.55,5 20,5.45 20,6L20,15C20,15.55 19.55,16 19,16L5,16C4.45,16 4,15.55 4,15L4,6C4,5.45 4.45,5 5,5ZM12,19C11.45,19 11,18.55 11,18C11,17.45 11.45,17 12,17C12.55,17 13,17.45 13,18C13,18.55 12.55,19 12,19Z" style="fill:rgb(44,44,40);fill-rule:nonzero;"/>
            </g>
        </g>
        <g id="ALEXA" transform="matrix(0.64236,0,0,0.64236,641.84,534.783)">
            <g transform="matrix(1,0,0,1,-12,-12)">
                <path d="M17,2L7,2C5.9,2 5,2.9 5,4L5,20C5,21.1 5.9,21.99 7,21.99L17,22C18.1,22 19,21.1 19,20L19,4C19,2.9 18.1,2 17,2ZM12,4C13.1,4 14,4.9 14,6C14,7.1 13.1,8 12,8C10.89,8 10,7.1 10,6C10,4.9 10.89,4 12,4ZM12,20C9.24,20 7,17.76 7,15C7,12.24 9.24,10 12,10C14.76,10 17,12.24 17,15C17,17.76 14.76,20 12,20ZM12,12C10.34,12 9,13.34 9,15C9,16.66 10.34,18 12,18C13.66,18 15,16.66 15,15C15,13.34 13.66,12 12,12Z" style="fill:rgb(44,44,40);fill-rule:nonzero;"/>
            </g>
        </g>
        <g id="iPhone" transform="matrix(0.74147,-9.26199e-33,0,0.74147,467.386,757.155)">
            <g transform="matrix(1,0,0,1,-12,-12)">
                <rect x="0" y="0" width="24" height="24" style="fill:none;fill-rule:nonzero;"/>
                <path d="M15.5,1L7.5,1C6.12,1 5,2.12 5,3.5L5,20.5C5,21.88 6.12,23 7.5,23L15.5,23C16.88,23 18,21.88 18,20.5L18,3.5C18,2.12 16.88,1 15.5,1ZM11.5,22C10.67,22 10,21.33 10,20.5C10,19.67 10.67,19 11.5,19C12.33,19 13,19.67 13,20.5C13,21.33 12.33,22 11.5,22ZM16,18L7,18L7,4L16,4L16,18Z" style="fill:rgb(44,44,40);fill-rule:nonzero;"/>
            </g>
        </g>
        <g id="SAMSUNG" transform="matrix(0.74147,-9.26199e-33,0,0.74147,782.588,55.0134)">
            <g transform="matrix(1,0,0,1,-12,-12)">
                <rect x="0" y="0" width="24" height="24" style="fill:none;fill-rule:nonzero;"/>
                <path d="M15.5,1L7.5,1C6.12,1 5,2.12 5,3.5L5,20.5C5,21.88 6.12,23 7.5,23L15.5,23C16.88,23 18,21.88 18,20.5L18,3.5C18,2.12 16.88,1 15.5,1ZM11.5,22C10.67,22 10,21.33 10,20.5C10,19.67 10.67,19 11.5,19C12.33,19 13,19.67 13,20.5C13,21.33 12.33,22 11.5,22ZM16,18L7,18L7,4L16,4L16,18Z" style="fill:rgb(44,44,40);fill-rule:nonzero;"/>
            </g>
        </g>
        <g id="IPHONE" transform="matrix(0.611495,0,0,0.611495,454.618,155.966)">
            <g transform="matrix(1,0,0,1,-12,-12)">
                <rect x="0" y="0" width="24" height="24" style="fill:none;fill-rule:nonzero;"/>
                <path d="M18.5,0L4.5,0C3.12,0 2,1.12 2,2.5L2,21.5C2,22.88 3.12,24 4.5,24L18.5,24C19.88,24 21,22.88 21,21.5L21,2.5C21,1.12 19.88,0 18.5,0ZM11.5,23C10.67,23 10,22.33 10,21.5C10,20.67 10.67,20 11.5,20C12.33,20 13,20.67 13,21.5C13,22.33 12.33,23 11.5,23ZM19,19L4,19L4,3L19,3L19,19Z" style="fill:rgb(44,44,40);fill-rule:nonzero;"/>
            </g>
        </g>
        <g id="FRIDGE" transform="matrix(0.69314,0,0,0.69314,628.979,246.523)">
            <path d="M18,2.01L6,2C4.9,2 4,2.89 4,4L4,20C4,21.1 4.9,22 6,22L18,22C19.1,22 20,21.1 20,20L20,4C20,2.89 19.1,2.01 18,2.01ZM17,20L7,20C6.45,20 6,19.55 6,19L6,11.98C6,11.43 6.45,10.98 7,10.98L17,10.98C17.55,10.98 18,11.43 18,11.98L18,19C18,19.55 17.55,20 17,20ZM17,9L7,9C6.45,9 6,8.55 6,8L6,5C6,4.45 6.45,4 7,4L17,4C17.55,4 18,4.45 18,5L18,8C18,8.55 17.55,9 17,9ZM9,5C9.55,5 10,5.45 10,6L10,7C10,7.55 9.55,8 9,8C8.45,8 8,7.55 8,7L8,6C8,5.45 8.45,5 9,5ZM9,12C9.55,12 10,12.45 10,13L10,16C10,16.55 9.55,17 9,17C8.45,17 8,16.55 8,16L8,13C8,12.45 8.45,12 9,12Z" style="fill:rgb(44,44,40);fill-rule:nonzero;"/>
        </g>
        <g id="ROUTER" transform="matrix(0.843514,0,0,0.843514,448.97,339.165)">
            <path d="M2.06,10.06C2.57,10.57 3.38,10.62 3.93,10.16C8.6,6.32 15.38,6.32 20.06,10.15C20.62,10.61 21.44,10.57 21.95,10.06C22.54,9.47 22.5,8.49 21.85,7.96C16.14,3.29 7.88,3.29 2.16,7.96C1.51,8.48 1.46,9.46 2.06,10.06ZM9.82,17.82L11.29,19.29C11.68,19.68 12.31,19.68 12.7,19.29L14.17,17.82C14.64,17.35 14.54,16.54 13.94,16.23C12.72,15.6 11.26,15.6 10.03,16.23C9.46,16.54 9.35,17.35 9.82,17.82ZM6.09,14.09C6.58,14.58 7.35,14.63 7.92,14.22C10.36,12.49 13.64,12.49 16.08,14.22C16.65,14.62 17.42,14.58 17.91,14.09L17.92,14.08C18.52,13.48 18.48,12.46 17.79,11.97C14.35,9.48 9.66,9.48 6.21,11.97C5.52,12.47 5.48,13.48 6.09,14.09Z" style="fill:rgb(44,44,40);fill-rule:nonzero;"/>
        </g>
    </g>
    <defs>
        <radialGradient id="_Radial1" cx="0" cy="0" r="1" gradientUnits="userSpaceOnUse" gradientTransform="matrix(604.028,19.2008,-14.0391,604.028,822.518,522.086)"><stop offset="0" style="stop-color:rgb(57,57,50);stop-opacity:1"/><stop offset="1" style="stop-color:rgb(96,92,74);stop-opacity:1"/></radialGradient>
        <radialGradient id="_Radial2" cx="0" cy="0" r="1" gradientUnits="userSpaceOnUse" gradientTransform="matrix(568.413,180.767,-142.51,341.652,684.46,452.472)"><stop offset="0" style="stop-color:rgb(47,47,42);stop-opacity:1"/><stop offset="1" style="stop-color:rgb(92,87,67);stop-opacity:1"/></radialGradient>
        <radialGradient id="_Radial3" cx="0" cy="0" r="1" gradientUnits="userSpaceOnUse" gradientTransform="matrix(490.089,-183.284,489.283,557.279,709.22,459.55)"><stop offset="0" style="stop-color:rgb(55,55,50);stop-opacity:1"/><stop offset="0.55" style="stop-color:rgb(120,113,68);stop-opacity:1"/><stop offset="1" style="stop-color:rgb(242,220,102);stop-opacity:1"/></radialGradient>
        <linearGradient id="_Linear4" x1="0" y1="0" x2="1" y2="0" gradientUnits="userSpaceOnUse" gradientTransform="matrix(449.449,881.636,-881.636,449.449,14.817,-2.18953e-47)"><stop offset="0" style="stop-color:rgb(44,44,44);stop-opacity:0.22"/><stop offset="1" style="stop-color:black;stop-opacity:0"/></linearGradient>
    </defs>
</svg>
