<svg xmlns="http://www.w3.org/2000/svg" xmlns:xlink="http://www.w3.org/1999/xlink" width="488" height="758" viewBox="0 0 488 758">
  <defs>
    <filter id="Ellipse_7" x="5" y="294" width="56" height="56" filterUnits="userSpaceOnUse">
      <feOffset input="SourceAlpha"/>
      <feGaussianBlur stdDeviation="5" result="blur"/>
      <feFlood flood-color="#f2dc66" flood-opacity="0.576"/>
      <feComposite operator="in" in2="blur"/>
      <feComposite in="SourceGraphic"/>
    </filter>
    <filter id="Ellipse_8" x="188" y="480" width="56" height="56" filterUnits="userSpaceOnUse">
      <feOffset input="SourceAlpha"/>
      <feGaussianBlur stdDeviation="5" result="blur-2"/>
      <feFlood flood-color="#cecdb5" flood-opacity="0.706"/>
      <feComposite operator="in" in2="blur-2"/>
      <feComposite in="SourceGraphic"/>
    </filter>
    <filter id="Ellipse_9" x="188" y="521" width="56" height="56" filterUnits="userSpaceOnUse">
      <feOffset input="SourceAlpha"/>
      <feGaussianBlur stdDeviation="5" result="blur-3"/>
      <feFlood flood-color="#cecdb5" flood-opacity="0.706"/>
      <feComposite operator="in" in2="blur-3"/>
      <feComposite in="SourceGraphic"/>
    </filter>
    <filter id="Ellipse_10" x="432" y="338" width="56" height="56" filterUnits="userSpaceOnUse">
      <feOffset input="SourceAlpha"/>
      <feGaussianBlur stdDeviation="5" result="blur-4"/>
      <feFlood flood-color="#cecdb5" flood-opacity="0.706"/>
      <feComposite operator="in" in2="blur-4"/>
      <feComposite in="SourceGraphic"/>
    </filter>
    <filter id="Ellipse_11" x="13" y="702" width="56" height="56" filterUnits="userSpaceOnUse">
      <feOffset input="SourceAlpha"/>
      <feGaussianBlur stdDeviation="5" result="blur-5"/>
      <feFlood flood-color="#cecdb5" flood-opacity="0.706"/>
      <feComposite operator="in" in2="blur-5"/>
      <feComposite in="SourceGraphic"/>
    </filter>
    <filter id="Ellipse_12" x="328" y="0" width="56" height="56" filterUnits="userSpaceOnUse">
      <feOffset input="SourceAlpha"/>
      <feGaussianBlur stdDeviation="5" result="blur-6"/>
      <feFlood flood-color="#cecdb5" flood-opacity="0.706"/>
      <feComposite operator="in" in2="blur-6"/>
      <feComposite in="SourceGraphic"/>
    </filter>
    <filter id="Ellipse_13" x="183" y="200" width="56" height="56" filterUnits="userSpaceOnUse">
      <feOffset input="SourceAlpha"/>
      <feGaussianBlur stdDeviation="5" result="blur-7"/>
      <feFlood flood-color="#cecdb5" flood-opacity="0.706"/>
      <feComposite operator="in" in2="blur-7"/>
      <feComposite in="SourceGraphic"/>
    </filter>
    <filter id="Ellipse_14" x="0" y="101" width="56" height="56" filterUnits="userSpaceOnUse">
      <feOffset input="SourceAlpha"/>
      <feGaussianBlur stdDeviation="5" result="blur-8"/>
      <feFlood flood-color="#cecdb5" flood-opacity="0.706"/>
      <feComposite operator="in" in2="blur-8"/>
      <feComposite in="SourceGraphic"/>
    </filter>
  </defs>
  <g id="Geräte" transform="translate(-670 -134)">
    <g transform="matrix(1, 0, 0, 1, 670, 134)" filter="url(#Ellipse_7)">
      <circle id="Ellipse_7-2" data-name="Ellipse 7" cx="13" cy="13" r="13" transform="translate(20 309)" fill="#f2dc66"/>
    </g>
    <g transform="matrix(1, 0, 0, 1, 670, 134)" filter="url(#Ellipse_8)">
      <circle id="Ellipse_8-2" data-name="Ellipse 8" cx="13" cy="13" r="13" transform="translate(203 495)" fill="#cecdb5"/>
    </g>
    <g transform="matrix(1, 0, 0, 1, 670, 134)" filter="url(#Ellipse_9)">
      <circle id="Ellipse_9-2" data-name="Ellipse 9" cx="13" cy="13" r="13" transform="translate(203 536)" fill="#cecdb5"/>
    </g>
    <g transform="matrix(1, 0, 0, 1, 670, 134)" filter="url(#Ellipse_10)">
      <circle id="Ellipse_10-2" data-name="Ellipse 10" cx="13" cy="13" r="13" transform="translate(447 353)" fill="#cecdb5"/>
    </g>
    <g transform="matrix(1, 0, 0, 1, 670, 134)" filter="url(#Ellipse_11)">
      <circle id="Ellipse_11-2" data-name="Ellipse 11" cx="13" cy="13" r="13" transform="translate(28 717)" fill="#cecdb5"/>
    </g>
    <g transform="matrix(1, 0, 0, 1, 670, 134)" filter="url(#Ellipse_12)">
      <circle id="Ellipse_12-2" data-name="Ellipse 12" cx="13" cy="13" r="13" transform="translate(343 15)" fill="#cecdb5"/>
    </g>
    <g transform="matrix(1, 0, 0, 1, 670, 134)" filter="url(#Ellipse_13)">
      <circle id="Ellipse_13-2" data-name="Ellipse 13" cx="13" cy="13" r="13" transform="translate(198 215)" fill="#cecdb5"/>
    </g>
    <g transform="matrix(1, 0, 0, 1, 670, 134)" filter="url(#Ellipse_14)">
      <circle id="Ellipse_14-2" data-name="Ellipse 14" cx="13" cy="13" r="13" transform="translate(15 116)" fill="#cecdb5"/>
    </g>
  </g>
</svg>
